<?xml version="1.0" standalone="no"?>
<!DOCTYPE svg PUBLIC "-//W3C//DTD SVG 20010904//EN"
 "http://www.w3.org/TR/2001/REC-SVG-20010904/DTD/svg10.dtd">
<svg version="1.0" xmlns="http://www.w3.org/2000/svg"
 width="300.000000pt" height="300.000000pt" viewBox="0 0 300.000000 300.000000"
 preserveAspectRatio="xMidYMid meet">
<metadata>
Created by potrace 1.11, written by Peter Selinger 2001-2013
</metadata>
<g transform="translate(0.000000,300.000000) scale(0.100000,-0.100000)"
fill="#000000" stroke="none">
<path d="M126 2988 c-32 -108 -45 -359 -26 -467 5 -31 15 -92 20 -136 6 -44
14 -106 18 -137 4 -31 11 -60 14 -63 4 -4 7 107 6 247 0 234 2 257 21 301 19
45 41 56 41 21 0 -8 4 -22 9 -32 5 -9 20 -43 32 -74 13 -32 26 -58 31 -58 4 0
8 22 8 49 0 56 9 111 19 111 4 0 13 -24 20 -52 8 -29 16 -57 19 -62 7 -13 22
16 22 47 0 44 20 31 47 -33 15 -33 30 -60 34 -60 5 0 6 6 4 13 -9 21 42 227
56 227 10 0 38 -46 92 -150 27 -52 53 -99 58 -104 5 -6 9 -18 9 -28 0 -10 4
-18 9 -18 5 0 7 17 5 38 -2 20 -5 66 -8 101 -4 62 -4 63 14 45 10 -10 39 -59
63 -108 42 -84 45 -87 54 -61 8 26 9 26 47 -39 22 -37 43 -69 49 -73 5 -3 54
39 108 93 54 54 99 93 99 86 0 -7 -12 -35 -26 -63 -14 -28 -23 -53 -21 -56 3
-2 47 33 99 79 117 104 178 152 178 139 0 -13 -29 -64 -76 -135 -61 -92 -46
-84 137 77 42 37 80 67 83 67 16 0 -5 -92 -39 -165 -19 -41 -12 -43 29 -9 73
61 130 97 134 86 7 -21 27 -13 104 37 83 54 227 125 236 117 6 -7 -67 -184
-119 -288 -6 -11 -5 -18 1 -18 5 0 10 4 10 9 0 14 144 84 148 71 2 -5 -8 -24
-22 -41 -41 -49 -31 -67 17 -29 31 25 176 84 184 76 4 -3 -2 -15 -12 -27 -15
-16 -16 -22 -6 -28 10 -7 7 -20 -13 -63 -14 -30 -26 -59 -26 -63 0 -5 -10 -19
-21 -31 -13 -14 -19 -29 -15 -40 6 -15 8 -15 31 0 13 9 33 16 43 16 10 0 27 9
37 20 10 11 29 20 42 20 25 0 31 -14 10 -24 -6 -3 0 -4 16 -2 23 3 25 1 15
-12 -7 -8 -13 -22 -14 -31 -2 -39 -17 -101 -25 -101 -5 0 -9 -11 -9 -24 0 -13
-4 -26 -9 -28 -13 -5 -25 -88 -13 -88 11 0 52 52 52 65 0 12 43 46 49 39 3 -4
0 -9 -6 -11 -7 -3 -13 -11 -13 -19 0 -8 -4 -22 -9 -32 -34 -66 -44 -92 -39
-97 7 -8 38 5 38 16 0 11 41 59 51 59 4 0 9 -6 12 -12 2 -7 2 -3 0 10 -2 15 2
22 13 22 14 0 15 -7 9 -42 -7 -43 -8 -66 -6 -103 1 -11 -1 -44 -5 -72 -7 -60
0 -65 33 -25 l22 27 -3 -122 c-2 -67 1 -128 5 -135 9 -15 56 83 84 177 10 33
22 64 27 70 4 5 8 27 8 50 0 67 97 202 173 242 16 8 31 12 35 9 3 -3 0 -6 -6
-6 -7 0 -12 -5 -12 -11 0 -6 -24 -35 -52 -64 -76 -76 -83 -91 -62 -123 12 -18
13 -27 6 -30 -7 -2 -12 -10 -12 -18 0 -16 -17 -49 -40 -77 -8 -10 -16 -30 -18
-45 -2 -15 -7 -31 -12 -36 -11 -11 -1 -36 14 -36 7 0 19 -18 26 -39 11 -36 11
-42 -9 -69 -11 -17 -21 -35 -21 -41 0 -6 -3 -11 -7 -11 -5 0 -14 -12 -21 -27
-14 -32 -16 -123 -2 -123 6 0 10 -7 10 -16 0 -33 63 -72 86 -53 20 16 19 -7
-1 -27 -8 -9 -15 -11 -15 -5 0 5 -13 16 -28 24 -33 16 -65 8 -93 -24 -17 -20
-17 -21 2 -40 10 -10 30 -19 44 -19 16 0 25 -6 25 -16 0 -9 -5 -12 -12 -8 -6
4 -17 -1 -25 -12 -11 -15 -17 -17 -33 -6 -46 28 -120 4 -120 -39 0 -8 -4 -19
-8 -24 -5 -6 -19 -44 -31 -85 -13 -41 -33 -99 -47 -128 -13 -29 -24 -55 -24
-57 0 -14 -76 -119 -116 -161 -25 -27 -67 -70 -92 -97 -25 -26 -50 -47 -55
-47 -6 0 -1 10 11 23 12 13 22 31 22 40 0 9 4 17 10 17 20 0 56 95 39 105 -5
4 -12 -2 -16 -12 -4 -10 -17 -27 -29 -38 -13 -11 -29 -36 -35 -54 -12 -33 -54
-80 -72 -81 -14 0 -36 -27 -47 -55 -7 -17 -15 -25 -25 -22 -9 4 -12 1 -8 -9 7
-20 13 -18 48 16 17 17 35 26 42 22 8 -5 -3 -24 -35 -60 -26 -29 -50 -52 -54
-52 -4 0 -18 -10 -31 -22 -34 -33 -76 -68 -82 -68 -3 0 -18 -12 -34 -26 -16
-14 -32 -24 -35 -22 -3 1 -11 -6 -19 -16 -8 -10 -19 -16 -24 -13 -6 4 -14 0
-17 -9 -3 -9 -13 -14 -21 -11 -8 4 -16 -1 -20 -12 -3 -10 -22 -27 -43 -37 -20
-10 -50 -29 -67 -40 -36 -26 -156 -74 -183 -74 -10 0 -27 9 -37 20 -23 26 -39
26 -25 1 5 -11 10 -21 10 -24 0 -2 -47 -2 -105 -1 -125 4 -185 25 -228 82 -55
72 -124 168 -153 213 -16 26 -51 80 -79 120 -57 85 -64 97 -117 202 -21 42
-41 77 -44 77 -3 0 -4 -36 -2 -80 2 -63 0 -83 -12 -90 -12 -8 -13 -13 -3 -30
20 -31 17 -52 -7 -45 -23 7 -29 -19 -6 -28 11 -4 16 -30 19 -94 2 -48 7 -98
11 -110 7 -19 4 -23 -20 -29 -37 -9 -64 -32 -64 -56 0 -23 -20 -24 -20 0 -1
15 -2 15 -13 2 -7 -8 -24 -20 -38 -27 -22 -9 -25 -16 -21 -47 3 -22 0 -36 -7
-36 -6 0 -11 -10 -10 -22 l0 -23 16 22 c8 13 19 23 24 23 12 0 11 -37 -1 -60
-8 -16 -5 -18 28 -22 20 -3 338 -4 707 -4 l669 1 17 48 c20 54 33 71 219 267
76 80 170 183 211 230 40 47 98 112 129 145 67 73 123 138 169 195 19 23 41
48 48 56 7 7 13 17 13 23 0 16 17 13 24 -4 3 -9 -3 -24 -15 -36 -11 -11 -17
-24 -14 -29 3 -5 -3 -20 -15 -32 -12 -13 -18 -29 -14 -40 3 -12 1 -16 -8 -13
-12 4 -58 -53 -58 -72 0 -5 -16 -21 -35 -36 -20 -16 -35 -36 -34 -45 3 -32 -1
-42 -15 -42 -8 0 -17 6 -20 13 -3 6 -5 3 -3 -8 3 -31 -12 -48 -29 -34 -11 9
-14 8 -14 -3 0 -7 -9 -20 -20 -28 -14 -10 -18 -22 -15 -47 4 -31 3 -33 -29
-33 -41 0 -90 -45 -66 -60 12 -7 12 -12 2 -22 -9 -9 -15 -9 -24 0 -15 15 -50
-3 -47 -26 3 -30 -1 -35 -16 -22 -13 11 -14 8 -9 -19 7 -33 -14 -60 -46 -60
-9 0 -4 7 13 20 33 25 35 42 5 37 -16 -2 -26 -13 -33 -35 -6 -17 -19 -41 -29
-52 -10 -11 -15 -25 -11 -30 3 -6 2 -11 -4 -11 -17 0 -24 22 -10 31 7 4 10 11
7 15 -12 11 -38 -24 -38 -52 0 -22 -2 -25 -15 -14 -12 10 -15 10 -15 -4 0 -9
-5 -15 -11 -14 -14 4 -62 -79 -54 -92 10 -15 23 -12 29 8 3 9 3 -1 0 -23 -4
-36 -3 -40 18 -43 13 -1 274 -5 581 -8 l557 -6 -2 1088 -3 1088 -73 55 c-72
54 -74 57 -68 91 29 161 36 242 36 414 0 105 -3 208 -6 229 l-7 37 -1347 0
-1347 0 5 -29 c2 -16 -1 -31 -6 -35 -11 -7 -26 40 -17 54 4 6 -3 10 -15 10
-11 0 -22 -6 -24 -12z m28 -150 c-3 -40 -8 -84 -11 -98 -2 -14 -4 -88 -4 -165
1 -106 -2 -136 -10 -122 -27 46 -7 457 22 457 5 0 7 -33 3 -72z m1493 -184
c-3 -3 -12 -4 -19 -1 -8 3 -5 6 6 6 11 1 17 -2 13 -5z m996 -640 c9 -9 -4 -35
-14 -28 -5 3 -9 12 -9 20 0 14 12 19 23 8z m164 -56 c-3 -7 -5 -2 -5 12 0 14
2 19 5 13 2 -7 2 -19 0 -25z m-133 -29 c-9 -11 -19 -17 -21 -15 -8 7 21 45 30
39 4 -3 1 -14 -9 -24z m49 -13 c6 -15 -11 -36 -29 -36 -9 0 -9 6 -1 25 13 28
22 31 30 11z m57 -71 c0 -14 -4 -25 -10 -25 -5 0 -10 11 -10 25 0 14 5 25 10
25 6 0 10 -11 10 -25z m-20 -60 c0 -14 -4 -25 -10 -25 -5 0 -10 11 -10 25 0
14 5 25 10 25 6 0 10 -11 10 -25z m27 -57 c-2 -18 -4 -6 -4 27 0 33 2 48 4 33
2 -15 2 -42 0 -60z m-16 -191 c-12 -12 -23 57 -14 90 6 25 8 21 14 -27 4 -30
4 -59 0 -63z m-34 13 c-1 -16 -5 -30 -9 -30 -5 0 -8 -9 -8 -19 0 -26 -13 -33
-34 -18 -22 16 -11 50 14 42 11 -3 18 -1 17 7 -1 30 4 48 13 48 5 0 8 -13 7
-30z m-87 -77 c0 -5 4 -14 9 -22 8 -12 12 -13 25 -1 9 7 20 10 23 6 4 -4 2
-10 -5 -15 -7 -4 -23 -22 -36 -39 l-23 -32 -26 20 c-18 15 -27 17 -30 8 -2 -7
-8 -10 -12 -6 -10 10 11 58 25 58 5 0 10 -7 10 -15 0 -8 7 -15 17 -15 15 0 15
2 -1 19 -10 11 -15 25 -11 30 7 12 35 15 35 4z m-70 -183 c0 -11 -4 -20 -9
-20 -5 0 -7 9 -4 20 3 11 7 20 9 20 2 0 4 -9 4 -20z m-115 -188 c-4 -26 -15
-58 -26 -73 -10 -15 -23 -37 -29 -50 -9 -21 -43 -72 -68 -104 -4 -5 -22 -32
-40 -60 -17 -27 -41 -61 -52 -73 -11 -13 -20 -30 -20 -37 0 -8 -9 -19 -20 -25
-11 -6 -26 -23 -34 -38 -16 -31 -64 -82 -77 -82 -18 0 -8 28 12 33 12 3 18 10
15 16 -4 6 1 22 10 36 9 14 13 25 8 25 -4 0 3 11 16 25 13 14 21 28 17 31 -3
4 5 21 18 39 14 17 25 37 25 43 0 7 4 12 8 12 11 0 82 141 94 188 6 20 11 48
12 62 2 39 33 64 78 61 35 -2 38 0 38 26 1 25 2 26 11 10 7 -11 8 -37 4 -65z
m249 -333 c-3 -5 -10 -7 -15 -3 -5 3 -7 10 -3 15 3 5 10 7 15 3 5 -3 7 -10 3
-15z m-294 -89 c0 -5 -4 -10 -10 -10 -5 0 -10 5 -10 10 0 6 5 10 10 10 6 0 10
-4 10 -10z m177 -62 c-3 -8 -6 -5 -6 6 -1 11 2 17 5 13 3 -3 4 -12 1 -19z
m-637 -68 c0 -5 -5 -10 -11 -10 -5 0 -7 5 -4 10 3 6 8 10 11 10 2 0 4 -4 4
-10z m488 -7 c-10 -2 -18 -9 -18 -14 0 -5 -4 -9 -10 -9 -5 0 -7 7 -4 15 4 8
16 14 28 14 16 -1 17 -2 4 -6z m2 -73 c0 -5 -4 -10 -10 -10 -5 0 -10 5 -10 10
0 6 5 10 10 10 6 0 10 -4 10 -10z m-240 -14 c0 -3 -4 -8 -10 -11 -5 -3 -10 -1
-10 4 0 6 5 11 10 11 6 0 10 -2 10 -4z m204 -12 c9 -24 7 -28 -9 -14 -17 14
-20 30 -6 30 5 0 12 -7 15 -16z m-74 -18 c0 -3 -4 -8 -10 -11 -5 -3 -10 -1
-10 4 0 6 5 11 10 11 6 0 10 -2 10 -4z m40 -35 c0 -6 -4 -13 -10 -16 -5 -3
-10 1 -10 9 0 9 5 16 10 16 6 0 10 -4 10 -9z m-99 -94 c-16 -16 -26 0 -10 19
9 11 15 12 17 4 2 -6 -1 -17 -7 -23z m-150 0 c-10 -9 -11 -8 -5 6 3 10 9 15
12 12 3 -3 0 -11 -7 -18z m116 17 c-3 -3 -12 -4 -19 -1 -8 3 -5 6 6 6 11 1 17
-2 13 -5z m-38 -50 c-13 -16 -39 -19 -39 -4 0 12 32 30 43 23 4 -3 3 -11 -4
-19z m41 -38 c0 -16 -18 -31 -27 -22 -8 8 5 36 17 36 5 0 10 -6 10 -14z
m-1800 -11 c0 -16 -27 -32 -37 -22 -3 4 -3 13 0 22 8 20 37 20 37 0z m48 -8
c2 -12 -1 -15 -12 -11 -19 7 -22 38 -3 32 6 -3 13 -12 15 -21z m1672 -23 c0
-8 -5 -12 -10 -9 -6 4 -8 11 -5 16 9 14 15 11 15 -7z m-70 -10 c0 -9 -9 -18
-21 -21 -13 -4 -18 -11 -14 -21 6 -17 -12 -42 -31 -42 -21 0 -17 12 17 58 32
44 49 53 49 26z m-1641 -20 c-10 -13 -10 -17 1 -24 12 -7 12 -13 0 -35 -9 -16
-17 -22 -23 -16 -7 7 -5 16 3 26 12 14 11 18 0 25 -11 7 -11 11 -1 24 8 9 18
16 23 16 6 0 5 -7 -3 -16z m61 -4 c0 -5 -7 -10 -16 -10 -8 0 -12 5 -9 10 3 6
10 10 16 10 5 0 9 -4 9 -10z m1600 -6 c0 -8 -4 -12 -10 -9 -5 3 -10 10 -10 16
0 5 5 9 10 9 6 0 10 -7 10 -16z m-1760 -6 c0 -7 3 -24 6 -38 6 -24 6 -25 -9
-5 -18 22 -22 55 -7 55 6 0 10 -6 10 -12z m50 2 c0 -5 -2 -10 -4 -10 -3 0 -8
5 -11 10 -3 6 -1 10 4 10 6 0 11 -4 11 -10z m1695 -69 c8 -14 -26 -44 -37 -33
-5 5 -6 16 -2 25 7 18 29 23 39 8z m-1718 -23 c-3 -8 -6 -5 -6 6 -1 11 2 17 5
13 3 -3 4 -12 1 -19z m1623 12 c0 -10 -41 -31 -49 -24 -1 1 3 10 10 18 16 18
39 21 39 6z"/>
<path d="M2078 2443 c7 -3 16 -2 19 1 4 3 -2 6 -13 5 -11 0 -14 -3 -6 -6z"/>
<path d="M308 1983 c7 -3 16 -2 19 1 4 3 -2 6 -13 5 -11 0 -14 -3 -6 -6z"/>
<path d="M355 1948 c16 -13 56 -48 89 -78 34 -30 79 -70 101 -88 l40 -32 -40
5 -40 6 41 -26 c34 -21 43 -33 48 -64 7 -44 40 -67 81 -57 21 5 33 0 61 -28
19 -19 37 -30 40 -24 7 10 -14 57 -31 71 -5 5 0 5 13 2 13 -4 22 -2 22 5 0 16
-100 120 -115 120 -7 0 -18 7 -25 15 -13 16 -205 145 -215 145 -3 0 -23 11
-43 25 -46 31 -67 33 -27 3z"/>
<path d="M2564 1956 c-16 -18 -28 -76 -16 -76 6 0 13 14 17 30 4 17 11 30 16
30 5 0 9 7 9 15 0 18 -11 19 -26 1z"/>
<path d="M158 1943 c7 -3 16 -2 19 1 4 3 -2 6 -13 5 -11 0 -14 -3 -6 -6z"/>
<path d="M118 1923 c7 -3 16 -2 19 1 4 3 -2 6 -13 5 -11 0 -14 -3 -6 -6z"/>
<path d="M2005 1850 c-4 -6 5 -10 19 -10 14 0 26 5 26 10 0 6 -9 10 -19 10
-11 0 -23 -4 -26 -10z"/>
<path d="M1883 1826 c-18 -6 -35 -15 -39 -19 -4 -4 -20 -7 -35 -7 -15 0 -31
-4 -34 -10 -3 -5 -19 -10 -34 -10 -26 0 -281 -76 -483 -144 -42 -14 -86 -26
-97 -26 -26 0 -28 -16 -3 -23 9 -3 30 -14 45 -24 28 -18 29 -18 47 5 10 12 27
22 38 22 20 0 101 26 162 53 19 8 62 25 95 37 33 13 78 31 100 40 22 10 56 23
75 30 19 7 44 16 55 20 11 4 40 13 65 20 25 6 53 16 62 21 10 5 25 9 33 9 8 0
15 5 15 10 0 13 -26 11 -67 -4z"/>
<path d="M358 1799 c6 -7 12 -27 13 -43 1 -54 38 -126 77 -150 16 -9 16 -1 -1
16 -19 19 -47 94 -47 125 0 14 8 32 18 39 16 13 16 13 -3 14 -11 0 -31 3 -45
6 -21 6 -23 4 -12 -7z"/>
<path d="M458 1773 c6 -2 18 -2 25 0 6 3 1 5 -13 5 -14 0 -19 -2 -12 -5z"/>
<path d="M1575 1614 c-57 -8 -120 -26 -162 -46 -41 -20 -48 -38 -15 -38 12 0
13 -3 4 -12 -7 -7 -12 -16 -12 -20 0 -15 19 -8 52 20 42 35 80 52 121 52 18 0
47 4 65 9 26 8 34 6 44 -8 7 -10 25 -25 39 -34 34 -23 78 -8 102 34 12 21 22
29 33 25 9 -3 31 -6 50 -6 43 0 44 -17 4 -75 -30 -44 -85 -85 -112 -85 -9 0
-22 -7 -29 -16 -12 -15 -11 -16 11 -9 14 4 32 9 40 10 59 7 102 20 107 31 3 8
11 14 18 14 7 0 18 7 25 15 16 19 1 19 -24 0 -39 -30 -47 -14 -12 23 20 20 36
42 36 49 0 7 10 21 22 33 12 11 19 23 15 26 -7 7 -378 14 -422 8z"/>
<path d="M482 1568 c6 -18 80 -40 92 -28 7 7 1 10 -16 10 -15 0 -29 4 -32 9
-9 13 -48 21 -44 9z"/>
<path d="M3 1535 c0 -22 2 -30 4 -17 2 12 2 30 0 40 -3 9 -5 -1 -4 -23z"/>
<path d="M263 1425 c0 -22 2 -30 4 -17 2 12 2 30 0 40 -3 9 -5 -1 -4 -23z"/>
<path d="M1543 1423 c15 -2 37 -2 50 0 12 2 0 4 -28 4 -27 0 -38 -2 -22 -4z"/>
<path d="M1673 1403 c9 -2 25 -2 35 0 9 3 1 5 -18 5 -19 0 -27 -2 -17 -5z"/>
<path d="M242 1340 c0 -14 2 -19 5 -12 2 6 2 18 0 25 -3 6 -5 1 -5 -13z"/>
<path d="M2261 1349 c0 -8 -10 -25 -21 -37 -24 -25 -26 -42 -4 -42 8 0 12 5 9
11 -4 6 1 16 10 23 11 8 15 21 12 37 -2 13 -5 17 -6 8z"/>
<path d="M211 1269 c-7 -19 -13 -42 -12 -52 2 -10 -3 -24 -9 -32 -6 -8 -10
-22 -8 -32 2 -10 14 11 27 49 24 73 26 125 2 67z"/>
<path d="M2190 1240 c-8 -11 -20 -20 -27 -20 -7 0 -13 -4 -13 -10 0 -5 7 -7
15 -4 10 4 15 0 15 -15 0 -12 4 -21 9 -21 5 0 11 -7 15 -15 3 -8 2 -14 -2 -12
-12 4 -15 -7 -8 -31 5 -16 3 -29 -8 -41 -23 -25 -20 -40 7 -34 21 6 66 49 67
66 0 4 -9 7 -20 7 -11 0 -20 5 -20 10 0 6 8 10 19 10 20 0 45 23 35 33 -3 3
-15 1 -25 -6 -14 -9 -21 -9 -31 1 -11 11 -10 15 5 23 22 13 13 29 -13 22 -24
-6 -28 22 -5 31 8 3 15 10 15 16 0 16 -14 12 -30 -10z"/>
<path d="M2120 1170 c0 -13 28 -25 38 -16 3 4 0 11 -8 16 -20 13 -30 12 -30 0z"/>
<path d="M303 1103 c-40 -106 -93 -350 -94 -433 0 -43 -3 -58 -8 -45 -11 27
-2 -122 9 -157 5 -15 6 -43 3 -62 -4 -23 0 -42 11 -57 9 -13 16 -31 16 -41 0
-10 5 -18 10 -18 6 0 10 -10 10 -22 0 -17 3 -19 12 -10 7 7 22 12 34 12 23 0
34 17 34 56 0 17 4 22 15 18 12 -5 15 5 15 55 0 74 -17 81 -26 11 -9 -72 -28
-77 -22 -7 3 41 1 58 -9 61 -16 6 -18 110 -3 171 5 22 10 72 10 110 1 69 8
113 35 229 13 57 13 59 -4 40 -23 -24 -53 -123 -59 -194 -2 -30 -9 -58 -14
-61 -13 -9 -14 -355 -1 -371 6 -7 13 -34 16 -60 5 -38 4 -48 -8 -48 -9 0 -14
10 -13 27 1 50 -15 153 -24 153 -20 0 19 435 43 482 5 10 9 32 9 48 0 17 7 53
16 80 25 75 14 104 -13 33z"/>
<path d="M155 1091 c-3 -5 -1 -12 5 -16 5 -3 10 1 10 9 0 18 -6 21 -15 7z"/>
<path d="M142 1000 c0 -14 2 -19 5 -12 2 6 2 18 0 25 -3 6 -5 1 -5 -13z"/>
<path d="M120 924 c0 -27 4 -43 10 -39 6 3 10 24 10 46 0 21 -4 39 -10 39 -5
0 -10 -21 -10 -46z"/>
<path d="M390 916 c0 -8 5 -18 10 -21 6 -3 10 1 10 9 0 8 -4 18 -10 21 -5 3
-10 -1 -10 -9z"/>
<path d="M72 890 c0 -19 2 -27 5 -17 2 9 2 25 0 35 -3 9 -5 1 -5 -18z"/>
<path d="M410 866 c0 -9 5 -16 10 -16 6 0 10 4 10 9 0 6 -4 13 -10 16 -5 3
-10 -1 -10 -9z"/>
<path d="M108 840 c-15 -59 -28 -188 -28 -283 0 -57 -5 -108 -10 -113 -7 -7
-4 -24 9 -55 12 -24 21 -54 21 -66 0 -13 5 -23 10 -23 6 0 10 -20 10 -45 0
-27 5 -45 11 -45 13 0 7 85 -12 165 -17 75 -23 289 -9 365 13 69 11 151 -2
100z"/>
<path d="M973 853 c9 -2 23 -2 30 0 6 3 -1 5 -18 5 -16 0 -22 -2 -12 -5z"/>
<path d="M853 793 c9 -2 23 -2 30 0 6 3 -1 5 -18 5 -16 0 -22 -2 -12 -5z"/>
<path d="M32 740 c0 -14 2 -19 5 -12 2 6 2 18 0 25 -3 6 -5 1 -5 -13z"/>
<path d="M51 651 c-1 -28 3 -41 8 -35 6 5 6 24 1 44 l-8 35 -1 -44z"/>
<path d="M362 635 c0 -16 2 -22 5 -12 2 9 2 23 0 30 -3 6 -5 -1 -5 -18z"/>
<path d="M1515 624 c-29 -19 -134 -34 -255 -35 l-105 -2 135 -10 c96 -6 144
-6 166 2 17 6 37 11 46 11 18 0 53 36 41 43 -4 3 -17 -1 -28 -9z"/>
<path d="M1605 631 c-3 -5 -1 -12 5 -16 5 -3 10 1 10 9 0 18 -6 21 -15 7z"/>
<path d="M1093 583 c9 -2 25 -2 35 0 9 3 1 5 -18 5 -19 0 -27 -2 -17 -5z"/>
<path d="M1606 555 c-4 -11 -14 -33 -22 -50 l-14 -30 4 40 c3 22 3 33 -1 25
-3 -8 -12 -19 -20 -23 -10 -6 -13 -17 -8 -34 3 -15 0 -34 -9 -49 -9 -12 -13
-30 -10 -39 4 -9 -1 -21 -11 -29 -14 -10 -15 -17 -6 -34 9 -17 7 -24 -15 -41
-14 -11 -23 -24 -20 -29 10 -17 45 -20 57 -6 6 8 17 14 25 14 7 0 27 20 44 45
17 25 37 45 45 45 9 0 15 10 15 23 0 12 3 33 7 46 5 20 3 22 -15 16 -48 -15
-47 27 2 68 l21 19 -27 -6 c-23 -5 -27 -3 -30 21 -4 25 -5 26 -12 8z m-29
-207 c-3 -7 -5 -2 -5 12 0 14 2 19 5 13 2 -7 2 -19 0 -25z m-33 -19 c-3 -5
-10 -7 -15 -3 -5 3 -7 10 -3 15 3 5 10 7 15 3 5 -3 7 -10 3 -15z"/>
<path d="M52 480 c0 -14 2 -19 5 -12 2 6 2 18 0 25 -3 6 -5 1 -5 -13z"/>
<path d="M1115 470 c-4 -6 5 -10 20 -10 15 0 24 4 20 10 -3 6 -12 10 -20 10
-8 0 -17 -4 -20 -10z"/>
<path d="M12 440 c0 -14 2 -19 5 -12 2 6 2 18 0 25 -3 6 -5 1 -5 -13z"/>
<path d="M426 428 c-9 -36 -7 -73 3 -62 14 14 25 84 13 84 -5 0 -12 -10 -16
-22z"/>
<path d="M25 338 c-9 -22 4 -43 17 -30 7 7 7 16 0 29 -10 17 -11 17 -17 1z"/>
<path d="M390 320 c0 -11 5 -20 10 -20 6 0 10 9 10 20 0 11 -4 20 -10 20 -5 0
-10 -9 -10 -20z"/>
<path d="M140 139 c0 -52 -3 -62 -20 -66 -26 -7 -24 -63 3 -63 13 0 17 8 17
35 0 44 23 47 45 5 9 -16 12 -30 8 -30 -5 0 0 -5 10 -11 29 -17 37 -1 17 39
-10 20 -30 63 -44 95 -14 31 -28 57 -31 57 -3 0 -5 -27 -5 -61z"/>
<path d="M72 130 c0 -14 2 -19 5 -12 2 6 2 18 0 25 -3 6 -5 1 -5 -13z"/>
<path d="M0 99 c0 -44 1 -46 25 -41 24 4 36 22 15 22 -6 0 -17 15 -25 33 l-14
32 -1 -46z"/>
<path d="M60 81 c0 -22 16 -36 24 -22 8 12 -3 41 -15 41 -5 0 -9 -9 -9 -19z"/>
<path d="M46 32 c-4 -4 -13 -7 -19 -7 -28 0 -19 -20 11 -23 23 -2 32 1 32 12
0 18 -14 28 -24 18z"/>
</g>
</svg>
